<svg width="1024" height="1024" viewBox="0 0 1024 1024" fill="none" xmlns="http://www.w3.org/2000/svg">
<path fill-rule="evenodd" clip-rule="evenodd" d="M498.426 2.0767C314.837 26.213 123.084 180.443 69.7995 346.828C9.64796 534.653 65.5843 756.412 211.665 890.267C329.025 997.804 504.4 1043.97 660.313 1015.99C736.068 1002.39 828.363 959.063 888.943 908.658C944.894 862.104 978.037 816.306 978.048 785.528C978.069 730.411 885.126 641.685 830.514 644.688C809.759 645.829 782.446 664.715 750.464 700.042C684.498 772.906 567.338 795.756 457.039 757.268C296.851 701.372 240.048 466.974 356.376 341.882C434.712 257.647 553.248 223.688 645.834 258.959C683.687 273.379 701.274 277.893 719.613 277.893C756.305 277.893 790.511 241.866 814.831 177.606C847.383 91.5948 817.864 52.8123 692.089 16.3447C648.76 3.78172 544.107 -3.9289 498.426 2.0767Z" fill="url(#paint0_linear_122_16)"/>
<path d="M453.391 406.321C456.118 393.324 466.194 382.195 479.273 377.739C488.093 374.733 492.525 375.134 527.289 382.084C580.004 392.624 662.181 409.955 679.077 413.114C725.092 421.72 723.966 419.994 733.893 429.93C747.615 443.664 747.582 462.935 733.808 479.774C724.129 491.606 577.942 637.535 572.018 641.279C555.95 651.432 538.324 650.07 526.126 637.732C517.91 629.424 516.067 625.385 507.083 595.983C491.722 545.706 476.33 495.401 460.448 445.285C452.353 419.745 451.529 415.195 453.391 406.321Z" fill="url(#paint1_linear_122_16)"/>
<defs>
<linearGradient id="paint0_linear_122_16" x1="846.413" y1="376.834" x2="173.69" y2="727.663" gradientUnits="userSpaceOnUse">
<stop offset="0.15" stop-color="#09BBFE"/>
<stop offset="1" stop-color="#475DF0"/>
</linearGradient>
<linearGradient id="paint1_linear_122_16" x1="494.572" y1="526.454" x2="647.351" y2="402.178" gradientUnits="userSpaceOnUse">
<stop stop-color="#FC8E81"/>
<stop offset="1" stop-color="#FEDC45"/>
</linearGradient>
</defs>
</svg>
