<svg width="99" height="32" viewBox="0 0 99 32" fill="none" xmlns="http://www.w3.org/2000/svg">
<g clip-path="url(#clip0_133_52)">
<path fill-rule="evenodd" clip-rule="evenodd" d="M16.2236 0.0648967C10.4865 0.819156 4.49419 5.63883 2.82905 10.8384C0.94931 16.7079 2.69732 23.6379 7.26233 27.8208C10.9299 31.1814 16.4103 32.6242 21.2826 31.7498C23.6499 31.3248 26.5342 29.9707 28.4273 28.3956C30.1758 26.9407 31.2115 25.5095 31.2118 24.5478C31.2125 22.8254 28.308 20.0527 26.6014 20.1465C25.9528 20.1822 25.0993 20.7723 24.0998 21.8763C22.0384 24.1533 18.3771 24.8674 14.9303 23.6646C9.92441 21.9179 8.14931 14.5929 11.7846 10.6838C14.2326 8.05145 17.9368 6.99026 20.8301 8.09248C22.013 8.5431 22.5626 8.68416 23.1357 8.68416C24.2823 8.68416 25.3513 7.5583 26.1113 5.55019C27.1285 2.86234 26.2061 1.65038 22.2756 0.510772C20.9216 0.118179 17.6511 -0.122778 16.2236 0.0648967Z" fill="url(#paint0_linear_133_52)"/>
<path d="M14.8163 12.6975C14.9015 12.2914 15.2164 11.9436 15.6251 11.8043C15.9007 11.7104 16.0392 11.7229 17.1256 11.9401C18.773 12.2695 21.341 12.8111 21.869 12.9098C23.307 13.1787 23.2718 13.1248 23.582 13.4353C24.0108 13.8645 24.0098 14.4667 23.5793 14.9929C23.2769 15.3627 18.7085 19.923 18.5234 20.04C18.0213 20.3572 17.4705 20.3147 17.0893 19.9291C16.8325 19.6695 16.7749 19.5433 16.4942 18.6245C16.0141 17.0533 15.5331 15.4813 15.0368 13.9152C14.7839 13.117 14.7581 12.9749 14.8163 12.6975Z" fill="url(#paint1_linear_133_52)"/>
<path d="M35.7828 15.2417C35.7828 14.2017 36.0078 13.2767 36.4578 12.4667C36.9078 11.6467 37.5328 11.0117 38.3328 10.5617C39.1428 10.1017 40.0578 9.87174 41.0778 9.87174C42.3278 9.87174 43.3978 10.2017 44.2878 10.8617C45.1778 11.5217 45.7728 12.4217 46.0728 13.5617H43.2528C43.0428 13.1217 42.7428 12.7867 42.3528 12.5567C41.9728 12.3267 41.5378 12.2117 41.0478 12.2117C40.2578 12.2117 39.6178 12.4867 39.1278 13.0367C38.6378 13.5867 38.3928 14.3217 38.3928 15.2417C38.3928 16.1617 38.6378 16.8967 39.1278 17.4467C39.6178 17.9967 40.2578 18.2717 41.0478 18.2717C41.5378 18.2717 41.9728 18.1567 42.3528 17.9267C42.7428 17.6967 43.0428 17.3617 43.2528 16.9217H46.0728C45.7728 18.0617 45.1778 18.9617 44.2878 19.6217C43.3978 20.2717 42.3278 20.5967 41.0778 20.5967C40.0578 20.5967 39.1428 20.3717 38.3328 19.9217C37.5328 19.4617 36.9078 18.8267 36.4578 18.0167C36.0078 17.2067 35.7828 16.2817 35.7828 15.2417ZM50.0586 9.42174V20.5217H47.4936V9.42174H50.0586ZM53.0575 11.2817C52.6075 11.2817 52.2375 11.1517 51.9475 10.8917C51.6675 10.6217 51.5275 10.2917 51.5275 9.90174C51.5275 9.50174 51.6675 9.17174 51.9475 8.91174C52.2375 8.64174 52.6075 8.50674 53.0575 8.50674C53.4975 8.50674 53.8575 8.64174 54.1375 8.91174C54.4275 9.17174 54.5725 9.50174 54.5725 9.90174C54.5725 10.2917 54.4275 10.6217 54.1375 10.8917C53.8575 11.1517 53.4975 11.2817 53.0575 11.2817ZM54.3325 12.1517V20.5217H51.7675V12.1517H54.3325ZM58.6063 13.3367C58.8563 12.9467 59.2013 12.6317 59.6413 12.3917C60.0813 12.1517 60.5963 12.0317 61.1863 12.0317C61.8763 12.0317 62.5013 12.2067 63.0613 12.5567C63.6213 12.9067 64.0613 13.4067 64.3813 14.0567C64.7113 14.7067 64.8763 15.4617 64.8763 16.3217C64.8763 17.1817 64.7113 17.9417 64.3813 18.6017C64.0613 19.2517 63.6213 19.7567 63.0613 20.1167C62.5013 20.4667 61.8763 20.6417 61.1863 20.6417C60.6063 20.6417 60.0913 20.5217 59.6413 20.2817C59.2013 20.0417 58.8563 19.7317 58.6063 19.3517V24.5117H56.0413V12.1517H58.6063V13.3367ZM62.2663 16.3217C62.2663 15.6817 62.0863 15.1817 61.7263 14.8217C61.3763 14.4517 60.9413 14.2667 60.4213 14.2667C59.9113 14.2667 59.4763 14.4517 59.1163 14.8217C58.7663 15.1917 58.5913 15.6967 58.5913 16.3367C58.5913 16.9767 58.7663 17.4817 59.1163 17.8517C59.4763 18.2217 59.9113 18.4067 60.4213 18.4067C60.9313 18.4067 61.3663 18.2217 61.7263 17.8517C62.0863 17.4717 62.2663 16.9617 62.2663 16.3217ZM68.6369 13.3367C68.8869 12.9467 69.2319 12.6317 69.6719 12.3917C70.1119 12.1517 70.6269 12.0317 71.2169 12.0317C71.9069 12.0317 72.5319 12.2067 73.0919 12.5567C73.6519 12.9067 74.0919 13.4067 74.4119 14.0567C74.7419 14.7067 74.9069 15.4617 74.9069 16.3217C74.9069 17.1817 74.7419 17.9417 74.4119 18.6017C74.0919 19.2517 73.6519 19.7567 73.0919 20.1167C72.5319 20.4667 71.9069 20.6417 71.2169 20.6417C70.6369 20.6417 70.1219 20.5217 69.6719 20.2817C69.2319 20.0417 68.8869 19.7317 68.6369 19.3517V24.5117H66.0719V12.1517H68.6369V13.3367ZM72.2969 16.3217C72.2969 15.6817 72.1169 15.1817 71.7569 14.8217C71.4069 14.4517 70.9719 14.2667 70.4519 14.2667C69.9419 14.2667 69.5069 14.4517 69.1469 14.8217C68.7969 15.1917 68.6219 15.6967 68.6219 16.3367C68.6219 16.9767 68.7969 17.4817 69.1469 17.8517C69.5069 18.2217 69.9419 18.4067 70.4519 18.4067C70.9619 18.4067 71.3969 18.2217 71.7569 17.8517C72.1169 17.4717 72.2969 16.9617 72.2969 16.3217ZM79.5076 20.6417C78.7776 20.6417 78.1276 20.5167 77.5576 20.2667C76.9876 20.0167 76.5376 19.6767 76.2076 19.2467C75.8776 18.8067 75.6926 18.3167 75.6526 17.7767H78.1876C78.2176 18.0667 78.3526 18.3017 78.5926 18.4817C78.8326 18.6617 79.1276 18.7517 79.4776 18.7517C79.7976 18.7517 80.0426 18.6917 80.2126 18.5717C80.3926 18.4417 80.4826 18.2767 80.4826 18.0767C80.4826 17.8367 80.3576 17.6617 80.1076 17.5517C79.8576 17.4317 79.4526 17.3017 78.8926 17.1617C78.2926 17.0217 77.7926 16.8767 77.3926 16.7267C76.9926 16.5667 76.6476 16.3217 76.3576 15.9917C76.0676 15.6517 75.9226 15.1967 75.9226 14.6267C75.9226 14.1467 76.0526 13.7117 76.3126 13.3217C76.5826 12.9217 76.9726 12.6067 77.4826 12.3767C78.0026 12.1467 78.6176 12.0317 79.3276 12.0317C80.3776 12.0317 81.2026 12.2917 81.8026 12.8117C82.4126 13.3317 82.7626 14.0217 82.8526 14.8817H80.4826C80.4426 14.5917 80.3126 14.3617 80.0926 14.1917C79.8826 14.0217 79.6026 13.9367 79.2526 13.9367C78.9526 13.9367 78.7226 13.9967 78.5626 14.1167C78.4026 14.2267 78.3226 14.3817 78.3226 14.5817C78.3226 14.8217 78.4476 15.0017 78.6976 15.1217C78.9576 15.2417 79.3576 15.3617 79.8976 15.4817C80.5176 15.6417 81.0226 15.8017 81.4126 15.9617C81.8026 16.1117 82.1426 16.3617 82.4326 16.7117C82.7326 17.0517 82.8876 17.5117 82.8976 18.0917C82.8976 18.5817 82.7576 19.0217 82.4776 19.4117C82.2076 19.7917 81.8126 20.0917 81.2926 20.3117C80.7826 20.5317 80.1876 20.6417 79.5076 20.6417ZM86.8819 9.42174V20.5217H84.3169V9.42174H86.8819ZM97.1407 12.1517L91.8907 24.4967H89.1307L91.0507 20.2367L87.6457 12.1517H90.5107L92.4457 17.3867L94.3657 12.1517H97.1407Z" fill="url(#paint2_linear_133_52)"/>
</g>
<defs>
<linearGradient id="paint0_linear_133_52" x1="27.0982" y1="11.7761" x2="6.07562" y2="22.7395" gradientUnits="userSpaceOnUse">
<stop offset="0.15" stop-color="#09BBFE"/>
<stop offset="1" stop-color="#475DF0"/>
</linearGradient>
<linearGradient id="paint1_linear_133_52" x1="16.1032" y1="16.4517" x2="20.8775" y2="12.5681" gradientUnits="userSpaceOnUse">
<stop stop-color="#FC8E81"/>
<stop offset="1" stop-color="#FEDC45"/>
</linearGradient>
<linearGradient id="paint2_linear_133_52" x1="34.6478" y1="31.2386" x2="99.7524" y2="16.7559" gradientUnits="userSpaceOnUse">
<stop stop-color="#E28CEB"/>
<stop offset="0.5" stop-color="#E9C07C"/>
<stop offset="0.75" stop-color="#9897F1"/>
</linearGradient>
<clipPath id="clip0_133_52">
<rect width="97.7043" height="32" fill="white" transform="translate(0.647827)"/>
</clipPath>
</defs>
</svg>
