<svg
    width="99"
    height="32"
    viewBox="0 0 99 32"
    fill="none"
    xmlns="http://www.w3.org/2000/svg"
>
    <g>
        <path
            fill-rule="evenodd"
            clip-rule="evenodd"
            d="M16.2236 0.0648967C10.4865 0.819156 4.49419 5.63883 2.82905 10.8384C0.94931 16.7079 2.69732 23.6379 7.26233 27.8208C10.9299 31.1814 16.4103 32.6242 21.2826 31.7498C23.6499 31.3248 26.5342 29.9707 28.4273 28.3956C30.1758 26.9407 31.2115 25.5095 31.2118 24.5478C31.2125 22.8254 28.308 20.0527 26.6014 20.1465C25.9528 20.1822 25.0993 20.7723 24.0998 21.8763C22.0384 24.1533 18.3771 24.8674 14.9303 23.6646C9.92441 21.9179 8.14931 14.5929 11.7846 10.6838C14.2326 8.05145 17.9368 6.99026 20.8301 8.09248C22.013 8.5431 22.5626 8.68416 23.1357 8.68416C24.2823 8.68416 25.3513 7.5583 26.1113 5.55019C27.1285 2.86234 26.2061 1.65038 22.2756 0.510772C20.9216 0.118179 17.6511 -0.122778 16.2236 0.0648967Z"
            fill="url(#paint0_linear_133_70)"
        />
        <path
            d="M14.8163 12.6975C14.9015 12.2914 15.2164 11.9436 15.6251 11.8043C15.9007 11.7104 16.0392 11.7229 17.1256 11.9401C18.773 12.2695 21.341 12.8111 21.869 12.9098C23.307 13.1787 23.2718 13.1248 23.582 13.4353C24.0108 13.8645 24.0098 14.4667 23.5793 14.9929C23.2769 15.3627 18.7085 19.923 18.5234 20.04C18.0213 20.3572 17.4705 20.3147 17.0893 19.9291C16.8325 19.6695 16.7749 19.5433 16.4942 18.6245C16.0141 17.0533 15.5331 15.4813 15.0368 13.9152C14.7839 13.117 14.7581 12.9749 14.8163 12.6975Z"
            fill="url(#paint1_linear_133_70)"
        />
        <path
            d="M93.7494 12.1517L88.4994 24.4967H85.7394L87.6594 20.2367L84.2544 12.1517H87.1194L89.0544 17.3867L90.9744 12.1517H93.7494Z"
            fill="url(#paint2_linear_133_70)"
        />
        <path
            d="M83.4906 9.42172V20.5217H80.9256V9.42172H83.4906Z"
            fill="url(#paint3_linear_133_70)"
        />
        <path
            d="M76.1163 20.6417C75.3863 20.6417 74.7363 20.5167 74.1663 20.2667C73.5963 20.0167 73.1463 19.6767 72.8163 19.2467C72.4863 18.8067 72.3013 18.3167 72.2613 17.7767H74.7963C74.8263 18.0667 74.9613 18.3017 75.2013 18.4817C75.4413 18.6617 75.7363 18.7517 76.0863 18.7517C76.4063 18.7517 76.6513 18.6917 76.8213 18.5717C77.0013 18.4417 77.0913 18.2767 77.0913 18.0767C77.0913 17.8367 76.9663 17.6617 76.7163 17.5517C76.4663 17.4317 76.0613 17.3017 75.5013 17.1617C74.9013 17.0217 74.4013 16.8767 74.0013 16.7267C73.6013 16.5667 73.2563 16.3217 72.9663 15.9917C72.6763 15.6517 72.5313 15.1967 72.5313 14.6267C72.5313 14.1467 72.6613 13.7117 72.9213 13.3217C73.1913 12.9217 73.5813 12.6067 74.0913 12.3767C74.6113 12.1467 75.2263 12.0317 75.9363 12.0317C76.9863 12.0317 77.8113 12.2917 78.4113 12.8117C79.0213 13.3317 79.3713 14.0217 79.4613 14.8817H77.0913C77.0513 14.5917 76.9213 14.3617 76.7013 14.1917C76.4913 14.0217 76.2113 13.9367 75.8613 13.9367C75.5613 13.9367 75.3313 13.9967 75.1713 14.1167C75.0113 14.2267 74.9313 14.3817 74.9313 14.5817C74.9313 14.8217 75.0563 15.0017 75.3063 15.1217C75.5663 15.2417 75.9663 15.3617 76.5063 15.4817C77.1263 15.6417 77.6313 15.8017 78.0213 15.9617C78.4113 16.1117 78.7513 16.3617 79.0413 16.7117C79.3413 17.0517 79.4963 17.5117 79.5063 18.0917C79.5063 18.5817 79.3663 19.0217 79.0863 19.4117C78.8163 19.7917 78.4213 20.0917 77.9013 20.3117C77.3913 20.5317 76.7963 20.6417 76.1163 20.6417Z"
            fill="url(#paint4_linear_133_70)"
        />
        <path
            d="M65.2456 13.3367C65.4956 12.9467 65.8406 12.6317 66.2806 12.3917C66.7206 12.1517 67.2356 12.0317 67.8256 12.0317C68.5156 12.0317 69.1406 12.2067 69.7006 12.5567C70.2606 12.9067 70.7006 13.4067 71.0206 14.0567C71.3506 14.7067 71.5156 15.4617 71.5156 16.3217C71.5156 17.1817 71.3506 17.9417 71.0206 18.6017C70.7006 19.2517 70.2606 19.7567 69.7006 20.1167C69.1406 20.4667 68.5156 20.6417 67.8256 20.6417C67.2456 20.6417 66.7306 20.5217 66.2806 20.2817C65.8406 20.0417 65.4956 19.7317 65.2456 19.3517V24.5117H62.6806V12.1517H65.2456V13.3367ZM68.9056 16.3217C68.9056 15.6817 68.7256 15.1817 68.3656 14.8217C68.0156 14.4517 67.5806 14.2667 67.0606 14.2667C66.5506 14.2667 66.1156 14.4517 65.7556 14.8217C65.4056 15.1917 65.2306 15.6967 65.2306 16.3367C65.2306 16.9767 65.4056 17.4817 65.7556 17.8517C66.1156 18.2217 66.5506 18.4067 67.0606 18.4067C67.5706 18.4067 68.0056 18.2217 68.3656 17.8517C68.7256 17.4717 68.9056 16.9617 68.9056 16.3217Z"
            fill="url(#paint5_linear_133_70)"
        />
        <path
            d="M55.215 13.3367C55.465 12.9467 55.81 12.6317 56.25 12.3917C56.69 12.1517 57.205 12.0317 57.795 12.0317C58.485 12.0317 59.11 12.2067 59.67 12.5567C60.23 12.9067 60.67 13.4067 60.99 14.0567C61.32 14.7067 61.485 15.4617 61.485 16.3217C61.485 17.1817 61.32 17.9417 60.99 18.6017C60.67 19.2517 60.23 19.7567 59.67 20.1167C59.11 20.4667 58.485 20.6417 57.795 20.6417C57.215 20.6417 56.7 20.5217 56.25 20.2817C55.81 20.0417 55.465 19.7317 55.215 19.3517V24.5117H52.65V12.1517H55.215V13.3367ZM58.875 16.3217C58.875 15.6817 58.695 15.1817 58.335 14.8217C57.985 14.4517 57.55 14.2667 57.03 14.2667C56.52 14.2667 56.085 14.4517 55.725 14.8217C55.375 15.1917 55.2 15.6967 55.2 16.3367C55.2 16.9767 55.375 17.4817 55.725 17.8517C56.085 18.2217 56.52 18.4067 57.03 18.4067C57.54 18.4067 57.975 18.2217 58.335 17.8517C58.695 17.4717 58.875 16.9617 58.875 16.3217Z"
            fill="url(#paint6_linear_133_70)"
        />
        <path
            d="M49.6662 11.2817C49.2162 11.2817 48.8462 11.1517 48.5562 10.8917C48.2762 10.6217 48.1362 10.2917 48.1362 9.90173C48.1362 9.50173 48.2762 9.17173 48.5562 8.91173C48.8462 8.64173 49.2162 8.50673 49.6662 8.50673C50.1062 8.50673 50.4662 8.64173 50.7462 8.91173C51.0362 9.17173 51.1812 9.50173 51.1812 9.90173C51.1812 10.2917 51.0362 10.6217 50.7462 10.8917C50.4662 11.1517 50.1062 11.2817 49.6662 11.2817ZM50.9412 12.1517V20.5217H48.3762V12.1517H50.9412Z"
            fill="url(#paint7_linear_133_70)"
        />
        <path
            d="M46.6673 9.42172V20.5217H44.1023V9.42172H46.6673Z"
            fill="url(#paint8_linear_133_70)"
        />
        <path
            d="M32.3915 15.2417C32.3915 14.2017 32.6165 13.2767 33.0665 12.4667C33.5165 11.6467 34.1415 11.0117 34.9415 10.5617C35.7515 10.1017 36.6665 9.87173 37.6865 9.87173C38.9365 9.87173 40.0065 10.2017 40.8965 10.8617C41.7865 11.5217 42.3815 12.4217 42.6815 13.5617H39.8615C39.6515 13.1217 39.3515 12.7867 38.9615 12.5567C38.5815 12.3267 38.1465 12.2117 37.6565 12.2117C36.8665 12.2117 36.2265 12.4867 35.7365 13.0367C35.2465 13.5867 35.0015 14.3217 35.0015 15.2417C35.0015 16.1617 35.2465 16.8967 35.7365 17.4467C36.2265 17.9967 36.8665 18.2717 37.6565 18.2717C38.1465 18.2717 38.5815 18.1567 38.9615 17.9267C39.3515 17.6967 39.6515 17.3617 39.8615 16.9217H42.6815C42.3815 18.0617 41.7865 18.9617 40.8965 19.6217C40.0065 20.2717 38.9365 20.5967 37.6865 20.5967C36.6665 20.5967 35.7515 20.3717 34.9415 19.9217C34.1415 19.4617 33.5165 18.8267 33.0665 18.0167C32.6165 17.2067 32.3915 16.2817 32.3915 15.2417Z"
            fill="url(#paint9_linear_133_70)"
        />
    </g>
    <defs>
        <linearGradient
            id="paint0_linear_133_70"
            x1="27.0982"
            y1="11.7761"
            x2="6.07562"
            y2="22.7395"
            gradientUnits="userSpaceOnUse"
        >
            <stop offset="0.15" stop-color="#09BBFE" />
            <stop offset="1" stop-color="#475DF0" />
        </linearGradient>
        <linearGradient
            id="paint1_linear_133_70"
            x1="16.1032"
            y1="16.4517"
            x2="20.8775"
            y2="12.5681"
            gradientUnits="userSpaceOnUse"
        >
            <stop stop-color="#FC8E81" />
            <stop offset="1" stop-color="#FEDC45" />
        </linearGradient>
        <linearGradient
            id="paint2_linear_133_70"
            x1="31.2565"
            y1="31.2386"
            x2="96.361"
            y2="16.7559"
            gradientUnits="userSpaceOnUse"
        >
            <stop stop-color="#E28CEB" />
            <stop offset="0.5" stop-color="#E9C07C" />
            <stop offset="0.75" stop-color="#9897F1" />
        </linearGradient>
        <linearGradient
            id="paint3_linear_133_70"
            x1="31.2565"
            y1="31.2386"
            x2="96.3611"
            y2="16.7559"
            gradientUnits="userSpaceOnUse"
        >
            <stop stop-color="#E28CEB" />
            <stop offset="0.5" stop-color="#E9C07C" />
            <stop offset="0.75" stop-color="#9897F1" />
        </linearGradient>
        <linearGradient
            id="paint4_linear_133_70"
            x1="31.2565"
            y1="31.2386"
            x2="96.3611"
            y2="16.7559"
            gradientUnits="userSpaceOnUse"
        >
            <stop stop-color="#E28CEB" />
            <stop offset="0.5" stop-color="#E9C07C" />
            <stop offset="0.75" stop-color="#9897F1" />
        </linearGradient>
        <linearGradient
            id="paint5_linear_133_70"
            x1="31.2565"
            y1="31.2386"
            x2="96.361"
            y2="16.7559"
            gradientUnits="userSpaceOnUse"
        >
            <stop stop-color="#E28CEB" />
            <stop offset="0.5" stop-color="#E9C07C" />
            <stop offset="0.75" stop-color="#9897F1" />
        </linearGradient>
        <linearGradient
            id="paint6_linear_133_70"
            x1="31.2565"
            y1="31.2386"
            x2="96.361"
            y2="16.7559"
            gradientUnits="userSpaceOnUse"
        >
            <stop stop-color="#E28CEB" />
            <stop offset="0.5" stop-color="#E9C07C" />
            <stop offset="0.75" stop-color="#9897F1" />
        </linearGradient>
        <linearGradient
            id="paint7_linear_133_70"
            x1="31.2565"
            y1="31.2386"
            x2="96.361"
            y2="16.7559"
            gradientUnits="userSpaceOnUse"
        >
            <stop stop-color="#E28CEB" />
            <stop offset="0.5" stop-color="#E9C07C" />
            <stop offset="0.75" stop-color="#9897F1" />
        </linearGradient>
        <linearGradient
            id="paint8_linear_133_70"
            x1="31.2565"
            y1="31.2386"
            x2="96.3611"
            y2="16.7559"
            gradientUnits="userSpaceOnUse"
        >
            <stop stop-color="#E28CEB" />
            <stop offset="0.5" stop-color="#E9C07C" />
            <stop offset="0.75" stop-color="#9897F1" />
        </linearGradient>
        <linearGradient
            id="paint9_linear_133_70"
            x1="31.2565"
            y1="31.2386"
            x2="96.361"
            y2="16.7559"
            gradientUnits="userSpaceOnUse"
        >
            <stop stop-color="#E28CEB" />
            <stop offset="0.5" stop-color="#E9C07C" />
            <stop offset="0.75" stop-color="#9897F1" />
        </linearGradient>
    </defs>
</svg>
